<?xml version="1.0" encoding="utf-8"?>
<!-- Svg Vector Icons : http://www.sfont.cn -->
<!DOCTYPE svg PUBLIC "-//W3C//DTD SVG 1.1//EN" "http://www.w3.org/Graphics/SVG/1.1/DTD/svg11.dtd">
<svg version="1.1" xmlns="http://www.w3.org/2000/svg" xmlns:xlink="http://www.w3.org/1999/xlink" x="0px" y="0px" viewBox="0 0 1000 1000" enable-background="new 0 0 1000 1000" xml:space="preserve">
<metadata> Svg Vector Icons : http://www.sfont.cn </metadata>
<g><path d="M324,502.9L754.8,63.2c10.6-10.6,7.5-32.3-5-44.8C737.9,6.6,710,7.7,699.1,18.6L244.1,474.7c-6.9,7-10.4,16.2-10.4,25.4c0,9.2,3.5,18.3,10.5,25.3l456.2,455.1c14,13.9,42.8,10.9,52.1,1.6c11-11.1,21.1-32.6,7.2-46.5L324,502.9z"/></g>
<g><path d="M275.1,990c-8.1,0-16.2-3-22.4-9.2c-12.6-12.4-12.8-32.6-0.4-45.2L680,500L252.3,64.4c-12.4-12.6-12.2-32.9,0.4-45.2C265.3,6.8,285.6,7,298,19.6l449.8,458c12.2,12.4,12.2,32.4,0,44.8L298,980.4C291.7,986.8,283.4,990,275.1,990z"/></g>
</svg>